<?xml version="1.0" encoding="utf-8"?>
<!-- Generator: Adobe Illustrator 23.0.3, SVG Export Plug-In . SVG Version: 6.00 Build 0)  -->
<svg version="1.1" id="Layer_1" xmlns="http://www.w3.org/2000/svg" xmlns:xlink="http://www.w3.org/1999/xlink" x="0px" y="0px"
	 viewBox="0 0 333.4 333.4" style="enable-background:new 0 0 333.4 333.4;" xml:space="preserve">
<style type="text/css">
	.st0{fill:none;stroke:#486EB4;stroke-width:15;stroke-miterlimit:10;}
	.st1{fill:none;stroke:#B54185;stroke-width:15;stroke-miterlimit:10;}
	.st2{fill:none;stroke:#1AAFDE;stroke-width:15;stroke-miterlimit:10;}
	.st3{fill:none;stroke:#157CBA;stroke-width:15;stroke-miterlimit:10;}
	.st4{fill:none;stroke:#2DAF4B;stroke-width:15;stroke-miterlimit:10;}
	.st5{fill:none;stroke:#EF4D44;stroke-width:15;stroke-miterlimit:10;}
	.st6{fill:none;stroke:#EB4943;stroke-width:15;stroke-miterlimit:10;}
	.st7{fill:none;stroke:#20B6E9;stroke-width:15;stroke-miterlimit:10;}
	.st8{fill:none;stroke:#F4E028;stroke-width:15;stroke-miterlimit:10;}
	.st9{fill:none;stroke:#33445A;stroke-width:15;stroke-miterlimit:10;}
	.st10{fill:none;stroke:#2790CF;stroke-width:15;stroke-miterlimit:10;}
	.st11{fill:none;stroke:#39AAE0;stroke-width:15;stroke-miterlimit:10;}
	.st12{fill:#FFFFFF;}
	.st13{fill:#486EB4;}
	.st14{fill:#B54185;}
	.st15{fill:#2DAF4B;}
	.st16{fill:#EB4943;}
	.st17{fill:#157CBA;}
	.st18{fill:#1AAFDE;}
	.st19{fill:#EF4D44;}
	.st20{fill:#33445A;}
	.st21{fill:#20B6E9;}
	.st22{fill:#F4E028;}
	.st23{fill:#2790CF;}
	.st24{fill:#39AAE0;}
	.st25{fill:none;stroke:url(#SVGID_1_);stroke-width:15;stroke-miterlimit:10;}
	.st26{fill:none;stroke:url(#SVGID_2_);stroke-width:15;stroke-miterlimit:10;}
	.st27{fill:none;stroke:url(#SVGID_3_);stroke-width:15;stroke-miterlimit:10;}
	.st28{fill:none;stroke:url(#SVGID_4_);stroke-width:15;stroke-miterlimit:10;}
	.st29{fill:none;stroke:url(#SVGID_5_);stroke-width:15;stroke-miterlimit:10;}
	.st30{fill:none;stroke:url(#SVGID_6_);stroke-width:15;stroke-miterlimit:10;}
	.st31{fill:none;stroke:url(#SVGID_7_);stroke-width:15;stroke-miterlimit:10;}
	.st32{fill:none;stroke:url(#SVGID_8_);stroke-width:15;stroke-miterlimit:10;}
	.st33{fill:none;stroke:url(#SVGID_9_);stroke-width:15;stroke-miterlimit:10;}
	.st34{fill:none;stroke:url(#SVGID_10_);stroke-width:15;stroke-miterlimit:10;}
	.st35{fill:none;stroke:url(#SVGID_11_);stroke-width:15;stroke-miterlimit:10;}
	.st36{fill:none;stroke:url(#SVGID_12_);stroke-width:15;stroke-miterlimit:10;}
	.st37{fill:url(#SVGID_13_);}
	.st38{fill:url(#SVGID_14_);}
	.st39{fill:url(#XMLID_14_);}
	.st40{fill:url(#SVGID_15_);}
	.st41{fill:url(#SVGID_16_);}
	.st42{fill:url(#SVGID_17_);}
	.st43{fill:url(#SVGID_18_);}
	.st44{fill:url(#SVGID_19_);}
	.st45{fill:url(#SVGID_20_);}
	.st46{fill:url(#SVGID_21_);}
	.st47{fill:url(#SVGID_22_);}
	.st48{fill:url(#SVGID_23_);}
	.st49{fill:url(#SVGID_24_);}
	.st50{fill:url(#SVGID_25_);}
	.st51{fill:url(#SVGID_26_);}
	.st52{fill:url(#SVGID_27_);}
	.st53{fill:url(#SVGID_28_);}
	.st54{fill:url(#SVGID_29_);}
	.st55{fill:url(#SVGID_30_);}
	.st56{fill:url(#SVGID_31_);}
	.st57{fill:url(#SVGID_32_);}
	.st58{fill:url(#SVGID_33_);}
	.st59{fill:url(#SVGID_34_);}
	.st60{fill:url(#SVGID_35_);}
</style>
<path class="st15" d="M15.1,88.2c0,0,2.7-70.7,80.4-68.4s208.6-0.8,221.7,76.6c13.1,77.4-84.3,222.8-162.9,222.6
	C86.5,318.8,10.9,193.2,15.1,88.2z"/>
<g>
	<g id="XMLID_4_">
		<path id="XMLID_6_" class="st12" d="M211.2,160.1c-0.4-0.2-13.9-6.8-16.3-7.7c-1-0.4-2-0.7-3.2-0.7c-1.8,0-3.4,0.9-4.6,2.7
			c-1.4,2-5.4,6.8-6.7,8.2c-0.2,0.2-0.4,0.4-0.5,0.4c-0.1,0-2.2-0.9-2.8-1.1c-14.5-6.3-25.5-21.5-27-24c-0.2-0.4-0.2-0.5-0.2-0.5
			c0.1-0.2,0.5-0.7,0.8-0.9c0.7-0.7,1.5-1.7,2.3-2.6c0.4-0.4,0.7-0.9,1.1-1.3c1.1-1.3,1.6-2.3,2.2-3.5l0.3-0.6
			c1.4-2.8,0.2-5.2-0.2-5.9c-0.3-0.6-6-14.4-6.6-15.9c-1.5-3.5-3.4-5.1-6.1-5.1c-0.2,0,0,0-1,0c-1.3,0.1-8.2,1-11.2,2.9
			c-3.2,2-8.7,8.6-8.7,20c0,10.3,6.5,20.1,9.4,23.8c0.1,0.1,0.2,0.3,0.4,0.6c10.8,15.7,24.2,27.4,37.8,32.8
			c13.1,5.2,19.3,5.8,22.8,5.8c0,0,0,0,0,0c1.5,0,2.7-0.1,3.7-0.2l0.7-0.1c4.5-0.4,14.5-5.6,16.7-11.8c1.8-5,2.3-10.4,1.1-12.3
			C214.4,161.7,213,161,211.2,160.1z"/>
		<path id="XMLID_5_" class="st12" d="M168.3,53.5c-50.3,0-91.1,40.6-91.1,90.5c0,16.1,4.3,31.9,12.5,45.7L74,235.9
			c-0.3,0.9-0.1,1.8,0.6,2.5c0.5,0.5,1.1,0.7,1.7,0.7c0.2,0,0.5,0,0.7-0.1l48.1-15.3c13.2,7,28.1,10.8,43.1,10.8
			c50.3,0,91.1-40.6,91.1-90.4C259.5,94.1,218.6,53.5,168.3,53.5z M168.3,215.6c-14.2,0-27.9-4.1-39.7-11.8
			c-0.4-0.3-0.9-0.4-1.3-0.4c-0.2,0-0.5,0-0.7,0.1l-24.1,7.7l7.8-23c0.3-0.7,0.1-1.6-0.3-2.2c-9-12.3-13.7-26.8-13.7-42
			c0-39.5,32.4-71.6,72.2-71.6c39.8,0,72.2,32.1,72.2,71.6C240.5,183.4,208.1,215.6,168.3,215.6z"/>
	</g>
</g>
</svg>
