<?xml version="1.0" encoding="utf-8"?>
<!-- Generator: Adobe Illustrator 23.0.3, SVG Export Plug-In . SVG Version: 6.00 Build 0)  -->
<svg version="1.1" id="Layer_1" xmlns="http://www.w3.org/2000/svg" xmlns:xlink="http://www.w3.org/1999/xlink" x="0px" y="0px"
	 viewBox="0 0 333.4 333.4" style="enable-background:new 0 0 333.4 333.4;" xml:space="preserve">
<style type="text/css">
	.st0{fill:none;stroke:#486EB4;stroke-width:15;stroke-miterlimit:10;}
	.st1{fill:none;stroke:#B54185;stroke-width:15;stroke-miterlimit:10;}
	.st2{fill:none;stroke:#1AAFDE;stroke-width:15;stroke-miterlimit:10;}
	.st3{fill:none;stroke:#157CBA;stroke-width:15;stroke-miterlimit:10;}
	.st4{fill:none;stroke:#2DAF4B;stroke-width:15;stroke-miterlimit:10;}
	.st5{fill:none;stroke:#EF4D44;stroke-width:15;stroke-miterlimit:10;}
	.st6{fill:none;stroke:#EB4943;stroke-width:15;stroke-miterlimit:10;}
	.st7{fill:none;stroke:#20B6E9;stroke-width:15;stroke-miterlimit:10;}
	.st8{fill:none;stroke:#F4E028;stroke-width:15;stroke-miterlimit:10;}
	.st9{fill:none;stroke:#33445A;stroke-width:15;stroke-miterlimit:10;}
	.st10{fill:none;stroke:#2790CF;stroke-width:15;stroke-miterlimit:10;}
	.st11{fill:none;stroke:#39AAE0;stroke-width:15;stroke-miterlimit:10;}
	.st12{fill:#FFFFFF;}
	.st13{fill:#486EB4;}
	.st14{fill:#B54185;}
	.st15{fill:#2DAF4B;}
	.st16{fill:#EB4943;}
	.st17{fill:#157CBA;}
	.st18{fill:#1AAFDE;}
	.st19{fill:#EF4D44;}
	.st20{fill:#33445A;}
	.st21{fill:#20B6E9;}
	.st22{fill:#F4E028;}
	.st23{fill:#2790CF;}
	.st24{fill:#39AAE0;}
	.st25{fill:none;stroke:url(#SVGID_1_);stroke-width:15;stroke-miterlimit:10;}
	.st26{fill:none;stroke:url(#SVGID_2_);stroke-width:15;stroke-miterlimit:10;}
	.st27{fill:none;stroke:url(#SVGID_3_);stroke-width:15;stroke-miterlimit:10;}
	.st28{fill:none;stroke:url(#SVGID_4_);stroke-width:15;stroke-miterlimit:10;}
	.st29{fill:none;stroke:url(#SVGID_5_);stroke-width:15;stroke-miterlimit:10;}
	.st30{fill:none;stroke:url(#SVGID_6_);stroke-width:15;stroke-miterlimit:10;}
	.st31{fill:none;stroke:url(#SVGID_7_);stroke-width:15;stroke-miterlimit:10;}
	.st32{fill:none;stroke:url(#SVGID_8_);stroke-width:15;stroke-miterlimit:10;}
	.st33{fill:none;stroke:url(#SVGID_9_);stroke-width:15;stroke-miterlimit:10;}
	.st34{fill:none;stroke:url(#SVGID_10_);stroke-width:15;stroke-miterlimit:10;}
	.st35{fill:none;stroke:url(#SVGID_11_);stroke-width:15;stroke-miterlimit:10;}
	.st36{fill:none;stroke:url(#SVGID_12_);stroke-width:15;stroke-miterlimit:10;}
	.st37{fill:url(#SVGID_13_);}
	.st38{fill:url(#SVGID_14_);}
	.st39{fill:url(#XMLID_14_);}
	.st40{fill:url(#SVGID_15_);}
	.st41{fill:url(#SVGID_16_);}
	.st42{fill:url(#SVGID_17_);}
	.st43{fill:url(#SVGID_18_);}
	.st44{fill:url(#SVGID_19_);}
	.st45{fill:url(#SVGID_20_);}
	.st46{fill:url(#SVGID_21_);}
	.st47{fill:url(#SVGID_22_);}
	.st48{fill:url(#SVGID_23_);}
	.st49{fill:url(#SVGID_24_);}
	.st50{fill:url(#SVGID_25_);}
	.st51{fill:url(#SVGID_26_);}
	.st52{fill:url(#SVGID_27_);}
	.st53{fill:url(#SVGID_28_);}
	.st54{fill:url(#SVGID_29_);}
	.st55{fill:url(#SVGID_30_);}
	.st56{fill:url(#SVGID_31_);}
	.st57{fill:url(#SVGID_32_);}
	.st58{fill:url(#SVGID_33_);}
	.st59{fill:url(#SVGID_34_);}
	.st60{fill:url(#SVGID_35_);}
</style>
<path class="st16" d="M15.1,86.9c0,0,2.7-70.7,80.4-68.4s208.6-0.8,221.7,76.6C330.4,172.5,233,318,154.3,317.7
	C86.5,317.5,10.9,191.8,15.1,86.9z"/>
<g>
	<g>
		<path class="st12" d="M148.1,104.9c-4.5-2.7-10.2,0.6-10.2,5.8v63c0,5.3,5.7,8.5,10.2,5.8l52.8-31.5c4.4-2.6,4.4-9,0-11.6
			L148.1,104.9z M151.4,161.8v-39.2l32.9,19.6L151.4,161.8z"/>
		<path class="st12" d="M237.8,63.6c-41.9-6.2-100.4-6.2-142.3,0c-16.8,2.5-30,15.6-32.8,32.7c-5.4,31.7-5.4,60,0,91.7
			c2.9,17.1,16.1,30.2,32.8,32.7c21,3.1,46.1,4.7,71.2,4.7c25.1,0,50.1-1.5,71.1-4.7c16.7-2.5,29.9-15.6,32.8-32.7
			c5.4-31.7,5.4-60,0-91.7C267.8,79.3,254.6,66.1,237.8,63.6L237.8,63.6z M257.4,185.8c-1.9,11.3-10.6,20-21.5,21.6
			c-40.7,6-97.5,6-138.3,0c-11-1.6-19.6-10.3-21.5-21.6c-5.2-30.5-5.2-56.6,0-87.2c1.9-11.3,10.6-20,21.5-21.6
			c20.4-3,44.8-4.5,69.1-4.5c24.4,0,48.8,1.5,69.2,4.5c11,1.6,19.6,10.3,21.5,21.6C262.5,129.2,262.5,155.2,257.4,185.8L257.4,185.8
			z"/>
	</g>
</g>
</svg>
